<?xml version="1.0" encoding="UTF-8"?>
<!DOCTYPE svg PUBLIC "-//W3C//DTD SVG 1.1//EN" "http://www.w3.org/Graphics/SVG/1.1/DTD/svg11.dtd">
<!-- Creator: CorelDRAW -->
<svg xmlns="http://www.w3.org/2000/svg" xml:space="preserve" width="8.26772in" height="11.6929in" style="shape-rendering:geometricPrecision; text-rendering:geometricPrecision; image-rendering:optimizeQuality; fill-rule:evenodd; clip-rule:evenodd"
viewBox="0 0 8.26772 11.6929"
 xmlns:xlink="http://www.w3.org/1999/xlink">
 <defs>
  <style type="text/css">
   <![CDATA[
    .str0 {stroke:#FAA954;stroke-width:0.00694488}
    .fil0 {fill:#FAA954}
    .fil1 {fill:#52658C;fill-rule:nonzero}
   ]]>
  </style>
 </defs>
 <g id="Capa_x0020_1">
  <metadata id="CorelCorpID_0Corel-Layer"/>
  <path class="fil0 str0" d="M3.18371 2.42498l-0.104606 0.165236c-0.0592559,-0.13987 -0.0991693,-0.309067 -0.0991693,-0.470606 0,-0.618047 0.480189,-1.12383 1.08789,-1.16483l0.0552717 0.0919094 0.00295669 0.00424803 0.343563 0.563173c0,0 0.20802,0.0468228 0.299957,0.288421 0.0919331,0.241598 0.056748,0.351665 0.00342913,0.389677 -0.0613425,0.0244134 -0.174815,0.00255906 -0.342874,-0.193823 -0.168059,-0.196382 -0.109516,-0.401449 -0.109516,-0.401449l-0.33398 -0.570587c-0.479181,0.0770472 -0.845209,0.492378 -0.845209,0.993256 0,0.122606 0.00216535,0.196752 0.0422874,0.30537zm1.91533 0.0223583l-1.42374 0c0,0 -0.0081811,0.0335748 0.00219291,0.0510472 0.0103701,0.0174724 0.0242559,0.0120354 0.0242559,0.0120354l0.00327165 0.0223307 0.0191378 0.00248031 0.00570079 0.0215394 0.020748 0.00111024 0.00490945 0.018 0.0229094 0.00490945 0.00654724 0.0190827 0.0174724 0.000555118 0.0109016 0.0120118 0.0186614 -0.000818898 0.0107953 0.017185 0.0225157 -0.00285433 0.0174213 0.0165 0.0218307 -0.00546457 0.0152835 0.0185551 0.0229094 -0.00762598 0.0141732 0.0196378 0.0305669 -0.00762992 0.0162598 0.0200354 0.0230157 -0.00857874 0.0152835 0.0169173 0.0305669 -0.00765354 0.0141732 0.0142008c0.0104803,0.0104803 0.334693,0.0588898 0.542453,-0.0632953l0.384634 -0.000212598c-0.175161,0.295921 -0.497528,0.494386 -0.866323,0.494386 -0.322185,0 -0.603055,-0.148976 -0.785264,-0.383709l0.34689 -0.629398c0.00464567,-0.00847244 0.0375315,-0.0204055 0.0905866,-0.0196378 0.0530551,0.00076378 0.0982717,-0.0400945 0.114555,-0.0676535l0.244185 -0.413165 -0.019374 -0.0429724 -0.0545591 -0.00435433 -0.219476 0.366657 -0.0490984 0.000527559 -0.0147283 -0.0392756 0.217445 -0.365154 -0.0174449 -0.0561969 -0.0562244 0.00654724 -0.227024 0.368795 -0.0512874 0.00216535 -0.0125669 -0.0442126 0.216024 -0.372071 -0.0172362 -0.0496772 -0.0540591 0.00829134c0,0 -0.19939,0.347996 -0.232122,0.387272 -0.0327283,0.0392756 -0.0431024,0.14515 -0.0218268,0.18989 0.0212717,0.0447402 0.0368976,0.0561142 0.0305394,0.0676496l-0.308142 0.559346 -0.0986142 0.161118c0.208315,0.319488 0.568902,0.530705 0.978823,0.530705 0.531075,0 0.97924,-0.354571 1.12091,-0.839874l-0.169433 0zm-0.856768 -1.4915c0.600547,0.0482244 1.07289,0.550791 1.07289,1.16377 0,0.0607913 -0.00466929,0.120496 -0.0136181,0.178776l-0.163705 0c0.0103976,-0.0580433 0.0158386,-0.117748 0.0158386,-0.178776 0,-0.486598 -0.345386,-0.89248 -0.804402,-0.985894l-0.107008 -0.177878z"/>
  <path class="fil1" d="M0.897398 3.91038c-0.0088937,-0.00323622 -0.0161732,0.00343701 -0.0218307,0.0200118 -0.00566142,0.0165787 -0.0076811,0.0378031 -0.00606693,0.0636811 -0.0024252,0.0177913 -0.0121299,0.032748 -0.0291102,0.044878 -0.0064685,0.00404331 -0.0274921,0.00606693 -0.0630709,0.00606693 -0.0355827,0 -0.0562008,-0.00161811 -0.0618622,-0.00485433 -0.026685,-0.0105118 -0.0400276,-0.045685 -0.0400276,-0.105524l0 -0.0315394c-0.00485039,-0.0347677 -0.00727559,-0.0598386 -0.00727559,-0.0752008 0,-0.025874 0.00444882,-0.0444724 0.0133425,-0.0557953 0.0137441,-0.0161732 0.0525591,-0.0242598 0.116441,-0.0242598l0.0315354 0c0.0339646,0 0.0630748,0.000606299 0.0873346,0.0018189 0.0242559,0.00121654 0.0440709,0.00262992 0.0594331,0.00424803 0.0630748,0.00970079 0.103098,0.0303228 0.120083,0.0618583 0.0274921,0.051752 0.0493228,0.0788425 0.0654961,0.0812677 0.00727953,0.000807087 0.0141535,-0.00323622 0.020622,-0.0121299 0.000807087,-0.0024252 -0.00161811,-0.032748 -0.00727953,-0.0909685 -0.00323228,-0.0291102 -0.0058622,-0.0513504 -0.00788189,-0.0667126 -0.00202362,-0.0153661 -0.00343701,-0.0238543 -0.00424803,-0.0254724 -0.00485039,-0.0088937 -0.0214252,-0.0133425 -0.0497283,-0.0133425 -0.00485433,0 -0.0109173,0.000200787 -0.0181929,0.000606299 -0.00727953,0.000405512 -0.0141535,0.000807087 -0.020622,0.0012126 -0.0064685,0.000405512 -0.0121299,0.000811024 -0.0169803,0.0012126 -0.00485433,0.000405512 -0.0076811,0.000606299 -0.00849213,0.000606299l-0.653776 0c-0.00808661,0 -0.0125315,0.00525591 -0.0133425,0.0157677 -0.00161417,0.00889764 -0.000401575,0.0153661 0.00364173,0.0194094 0.0064685,0.00808661 0.0161693,0.0149606 0.0291102,0.0206181l0.0497283 0c0.0347717,0.00161811 0.0562008,0.00525591 0.0642874,0.0109173 0.0202165,0.013748 0.0299173,0.0404331 0.0291102,0.0800551 -0.00404331,0.0533701 -0.0070748,0.104917 -0.00909843,0.15465 -0.00201969,0.0497323 -0.0030315,0.0984488 -0.0030315,0.146157 0,0.0283031 0.000405512,0.0547874 0.0012126,0.0794488 0.000811024,0.0246654 0.00202362,0.0475079 0.0036378,0.0685315 0.00404331,0.0509449 0.00707874,0.0875354 0.00909843,0.109772 0.00202362,0.0222362 0.0030315,0.0305236 0.0030315,0.0248661 0,0.0274921 -0.00404331,0.0452835 -0.0121299,0.0533701 -0.012126,0.012126 -0.0287047,0.0185984 -0.0497283,0.0194055 -0.025878,0.0024252 -0.0416457,0.00444882 -0.0473071,0.00606299 -0.012126,0.00323622 -0.0202126,0.0121299 -0.0242559,0.026685 -0.0024252,0.00970472 0.0012126,0.0165787 0.0109173,0.020622 0.00565748,0.0024252 0.0145551,0.0036378 0.0266811,0.0036378 0.0323465,-0.000807087 0.0608504,-0.00141339 0.0855157,-0.0018189 0.0246614,-0.000405512 0.0462913,-0.000606299 0.0648898,-0.000606299 0.0145551,0 0.0321457,0.000200787 0.0527638,0.000606299 0.0206181,0.000405512 0.0442717,0.00101181 0.0709567,0.0018189l0.092185 0c0.0113189,-0.00404331 0.0161732,-0.0121299 0.0145551,-0.0242598 -0.00161811,-0.00808661 -0.0024252,-0.0109173 -0.0024252,-0.00848819 -0.00242913,-0.00727953 -0.00444882,-0.0117283 -0.00606693,-0.0133425 -0.00161811,-0.00161811 -0.00606299,-0.00404331 -0.0133425,-0.00727953 0,0 -0.0161732,-0.000807087 -0.0485157,-0.0024252 -0.0161732,-0.000807087 -0.0303228,-0.00161811 -0.0424528,-0.0024252 -0.0121299,-0.000811024 -0.0214291,-0.00202362 -0.0278976,-0.0036378 -0.0129409,-0.00323622 -0.0202165,-0.0185984 -0.0218346,-0.0460945 0.000807087,0.00404331 0.0012126,0 0.0012126,-0.0121299 0,-0.012126 0,-0.0331535 0,-0.0630709 0,-0.0218346 0.000405512,-0.0475079 0.0012126,-0.0770236 0.000811024,-0.0295118 0.00202362,-0.0632756 0.00364173,-0.10128 0.000807087,-0.0105118 0.0012126,-0.0210236 0.0012126,-0.0315354 0,-0.0105118 0,-0.0214291 0,-0.032752 0.000807087,-0.0169803 0.00525591,-0.0278976 0.0133425,-0.032748 0.0064685,-0.00485039 0.0282992,-0.00808661 0.0654961,-0.00970472 0.0347717,-0.000807087 0.0553937,0.000405512 0.0618622,0.00364173 0.0202126,0.00970079 0.0311299,0.032748 0.032748,0.0691378l0 0.0400276c0.000807087,0.00970079 0.00485039,0.0173819 0.0121299,0.0230433 0.0105118,0.0064685 0.0202165,0.0064685 0.0291102,0 0.0113189,-0.0088937 0.0169803,-0.0295157 0.0169803,-0.0618583 0,-0.00566142 -0.000200787,-0.0123307 -0.000606299,-0.0200157 -0.000405512,-0.0076811 -0.000807087,-0.0149567 -0.0012126,-0.0218307 -0.000405512,-0.00687402 -0.000807087,-0.0127362 -0.0012126,-0.0175906 -0.000405512,-0.00485039 -0.000606299,-0.00808268 -0.000606299,-0.00970079l0 -0.0970354c0,-0.00404331 0.000200787,-0.0105118 0.000606299,-0.0194094 0.000405512,-0.0088937 0.00101181,-0.0202126 0.0018189,-0.0339606 0.000811024,-0.0121299 -0.00201969,-0.0210236 -0.00848819,-0.026685 -0.000811024,0 -0.00283071,0 -0.00606693,0 -0.0024252,0 -0.00606299,-0.000405512 -0.0109173,-0.0012126zm0.368736 -0.204988c-0.00485039,0.0161732 0.00323622,0.0287087 0.0242598,0.0376024 0.00727559,0.00323622 0.0222362,0.00485039 0.044878,0.00485039 0.0194055,0 0.0339646,0.00364173 0.0436654,0.0109173 0.0105118,0.00970472 0.0165787,0.0274921 0.0181969,0.0533701 0,-0.00323622 -0.000204724,-0.0012126 -0.000610236,0.00606299 -0.000401575,0.00727953 -0.00100787,0.019811 -0.0018189,0.0376024l-0.0157677 0.343264 0 0.038811 0.00849213 0.141917c0.0024252,0.0355787 0.0036378,0.0533661 0.0036378,0.0533661 -0.000807087,0.0218346 -0.00727559,0.0380079 -0.0194055,0.0485197 -0.00889764,0.0064685 -0.0307283,0.0109173 -0.0655,0.0133425 -0.0088937,0.000807087 -0.0181929,0.0012126 -0.0278976,0.0012126 -0.00970472,0 -0.0190039,0.000405512 -0.0278976,0.0012126 -0.0064685,0.0024252 -0.0117244,0.00687402 -0.0157677,0.0133425 -0.00161811,0.00323622 -0.00323622,0.00849213 -0.00485039,0.0157677 -0.00404331,0.0169803 0.0024252,0.0254724 0.0194055,0.0254724l0.0278976 0 0.0460906 0 0.587063 0 0.0339646 0 0.0739882 0c0.00727953,-0.00566142 0.0125354,-0.0113189 0.0157677,-0.0169803l0.0570079 -0.128571c0.00404331,-0.00970472 0.00606693,-0.0185984 0.00606693,-0.026685l-0.020622 -0.0194094 -0.00606299 0c-0.0444764,0.0905669 -0.128169,0.13585 -0.251079,0.13585l-0.169811 0c-0.0590315,0 -0.0938031,-0.0012126 -0.104315,-0.0036378 -0.00970472,-0.00323622 -0.0157677,-0.0129409 -0.0181929,-0.0291102 -0.000811024,-0.00566142 -0.00101181,-0.0226417 -0.000606299,-0.0509449 0.000401575,-0.0283031 0.00141339,-0.0683307 0.0030315,-0.120083l-0.0024252 -0.0630709c-0.0024252,-0.0638819 0.0024252,-0.101079 0.0145551,-0.111591 0.0088937,-0.00808661 0.0351732,-0.0125354 0.0788425,-0.0133425 0.0194055,-0.000807087 0.036185,-0.00101181 0.0503346,-0.000606299 0.0141496,0.000405512 0.0256732,0.00141339 0.0345709,0.0030315 0.0250669,0.00485039 0.0432598,0.0165787 0.0545827,0.0351772 0.0064685,0.0113189 0.0105118,0.0299173 0.012126,0.0557953 0.000811024,0.0282992 0.00202362,0.0440669 0.00364173,0.0473031 0.0064685,0.0088937 0.0141496,0.013748 0.0230433,0.0145551l0.0242598 0c0.00970472,-0.00323622 0.0145551,-0.0133425 0.0145551,-0.0303228 0.0024252,-0.00566142 0.0036378,-0.0157677 0.0036378,-0.0303228l0 -0.249866c0,-0.0169803 -0.0012126,-0.0274961 -0.0036378,-0.0315354 -0.0064685,-0.00404331 -0.0169803,-0.00606693 -0.0315354,-0.00606693 -0.00970472,0.0064685 -0.0165787,0.0141496 -0.020622,0.0230472l0 0.0315354c0.00161811,0.0194055 0.000405512,0.0347717 -0.0036378,0.0460906 -0.0064685,0.0218346 -0.0210236,0.0363898 -0.0436654,0.0436654 -0.0234488,0.00727953 -0.0739882,0.0109173 -0.151618,0.0109173 -0.025874,0 -0.0404291,-0.00161811 -0.0436654,-0.00485039 -0.013748,-0.00970472 -0.0218346,-0.0283031 -0.0242598,-0.0557953 -0.000807087,-0.00323622 -0.0012126,-0.0101102 -0.0012126,-0.020622 0,-0.0105118 0,-0.0246614 0,-0.0424528l0 -0.0824803c0,0.00161811 -0.000200787,0.000405512 -0.000606299,-0.0036378 -0.000405512,-0.00404331 -0.00101181,-0.0105118 -0.0018189,-0.0194055 -0.000807087,-0.00808661 -0.00141339,-0.0155669 -0.0018189,-0.0224409 -0.000405512,-0.00687402 -0.000204724,-0.0135433 0.000606299,-0.0200118 0.000807087,-0.0153661 0.00444882,-0.0262835 0.0109173,-0.032752 0.0088937,-0.0088937 0.045685,-0.0141496 0.110378,-0.0157677 0.0541772,-0.000807087 0.0942047,0.000405512 0.120079,0.0036378 0.0832913,0.00970472 0.150406,0.0566063 0.20135,0.140705 0.0105118,0 0.0185984,-0.00283071 0.0242559,-0.00849213 0.00404331,-0.00727953 0.00444882,-0.0161732 0.0012126,-0.026685 -0.00485039,-0.0242598 -0.0088937,-0.0404331 -0.012126,-0.0485157 -0.00242913,-0.00647244 -0.00444882,-0.0119291 -0.00606693,-0.016378 -0.00161811,-0.00444488 -0.00283071,-0.00747638 -0.0036378,-0.00909449 -0.000807087,-0.0064685 -0.0030315,-0.0147598 -0.00667323,-0.0248661 -0.0036378,-0.0101063 -0.00666929,-0.0183976 -0.00909449,-0.0248661 -0.00161811,-0.0064685 -0.00283071,-0.0119252 -0.0036378,-0.016374 -0.000811024,-0.00444882 -0.00161811,-0.0082874 -0.00242913,-0.0115236 -0.0064685,-0.0088937 -0.0226417,-0.0125315 -0.0485157,-0.0109173 -0.012937,0.000811024 -0.023248,0.00101181 -0.0309291,0.000606299 -0.00768504,-0.000401575 -0.0135472,-0.00100787 -0.0175906,-0.0018189 -0.128571,0 -0.235713,0.000204724 -0.321429,0.000606299 -0.0857126,0.000405512 -0.151213,0.00101181 -0.196496,0.0018189 -0.00566142,0 -0.0121299,-0.000200787 -0.0194055,-0.000606299 -0.00727953,-0.000401575 -0.0153661,-0.00100787 -0.0242598,-0.0018189 -0.0064685,0.000811024 -0.0101063,0.0018189 -0.0109173,0.00303543 -0.000807087,0.0012126 -0.00161417,0.00464961 -0.0024252,0.0103071zm0.889087 0c-0.00485039,0.0161732 0.00323622,0.0287087 0.0242598,0.0376024 0.00727559,0.00323622 0.0222362,0.00485039 0.044878,0.00485039 0.0194055,0 0.0339646,0.00364173 0.0436654,0.0109173 0.0105118,0.00970472 0.0165787,0.0274921 0.0181969,0.0533701 0,-0.00323622 -0.000204724,-0.0012126 -0.000610236,0.00606299 -0.000401575,0.00727953 -0.00100787,0.019811 -0.0018189,0.0376024l-0.0157677 0.343264 0 0.038811 0.00849213 0.141917c0.0024252,0.0355787 0.0036378,0.0533661 0.0036378,0.0533661 -0.000807087,0.0218346 -0.00727559,0.0380079 -0.0194055,0.0485197 -0.00889764,0.0064685 -0.0307283,0.0109173 -0.0655,0.0133425 -0.0088937,0.000807087 -0.0181929,0.0012126 -0.0278976,0.0012126 -0.00970472,0 -0.0190039,0.000405512 -0.0278976,0.0012126 -0.0064685,0.0024252 -0.0117244,0.00687402 -0.0157677,0.0133425 -0.00161811,0.00323622 -0.00323622,0.00849213 -0.00485039,0.0157677 -0.00404331,0.0169803 0.0024252,0.0254724 0.0194055,0.0254724l0.0278976 0 0.0460906 0 0.587063 0 0.0339646 0 0.0739882 0c0.00727953,-0.00566142 0.0125354,-0.0113189 0.0157677,-0.0169803l0.0570079 -0.128571c0.00404331,-0.00970472 0.00606693,-0.0185984 0.00606693,-0.026685l-0.020622 -0.0194094 -0.00606299 0c-0.0444764,0.0905669 -0.128169,0.13585 -0.251079,0.13585l-0.169811 0c-0.0590315,0 -0.0938031,-0.0012126 -0.104315,-0.0036378 -0.00970472,-0.00323622 -0.0157677,-0.0129409 -0.0181929,-0.0291102 -0.000811024,-0.00566142 -0.00101181,-0.0226417 -0.000606299,-0.0509449 0.000401575,-0.0283031 0.00141339,-0.0683307 0.0030315,-0.120083l-0.0024252 -0.0630709c-0.0024252,-0.0638819 0.0024252,-0.101079 0.0145551,-0.111591 0.0088937,-0.00808661 0.0351732,-0.0125354 0.0788425,-0.0133425 0.0194055,-0.000807087 0.036185,-0.00101181 0.0503346,-0.000606299 0.0141496,0.000405512 0.0256732,0.00141339 0.0345709,0.0030315 0.0250669,0.00485039 0.0432598,0.0165787 0.0545827,0.0351772 0.0064685,0.0113189 0.0105118,0.0299173 0.012126,0.0557953 0.000811024,0.0282992 0.00202362,0.0440669 0.00364173,0.0473031 0.0064685,0.0088937 0.0141496,0.013748 0.0230433,0.0145551l0.0242598 0c0.00970472,-0.00323622 0.0145551,-0.0133425 0.0145551,-0.0303228 0.0024252,-0.00566142 0.0036378,-0.0157677 0.0036378,-0.0303228l0 -0.249866c0,-0.0169803 -0.0012126,-0.0274961 -0.0036378,-0.0315354 -0.0064685,-0.00404331 -0.0169803,-0.00606693 -0.0315354,-0.00606693 -0.00970472,0.0064685 -0.0165787,0.0141496 -0.020622,0.0230472l0 0.0315354c0.00161811,0.0194055 0.000405512,0.0347717 -0.0036378,0.0460906 -0.0064685,0.0218346 -0.0210236,0.0363898 -0.0436654,0.0436654 -0.0234488,0.00727953 -0.0739882,0.0109173 -0.151618,0.0109173 -0.025874,0 -0.0404291,-0.00161811 -0.0436654,-0.00485039 -0.013748,-0.00970472 -0.0218346,-0.0283031 -0.0242598,-0.0557953 -0.000807087,-0.00323622 -0.0012126,-0.0101102 -0.0012126,-0.020622 0,-0.0105118 0,-0.0246614 0,-0.0424528l0 -0.0824803c0,0.00161811 -0.000200787,0.000405512 -0.000606299,-0.0036378 -0.000405512,-0.00404331 -0.00101181,-0.0105118 -0.0018189,-0.0194055 -0.000807087,-0.00808661 -0.00141339,-0.0155669 -0.0018189,-0.0224409 -0.000405512,-0.00687402 -0.000204724,-0.0135433 0.000606299,-0.0200118 0.000807087,-0.0153661 0.00444882,-0.0262835 0.0109173,-0.032752 0.0088937,-0.0088937 0.045685,-0.0141496 0.110378,-0.0157677 0.0541772,-0.000807087 0.0942047,0.000405512 0.120079,0.0036378 0.0832913,0.00970472 0.150406,0.0566063 0.20135,0.140705 0.0105118,0 0.0185984,-0.00283071 0.0242559,-0.00849213 0.00404331,-0.00727953 0.00444882,-0.0161732 0.0012126,-0.026685 -0.00485039,-0.0242598 -0.0088937,-0.0404331 -0.012126,-0.0485157 -0.00242913,-0.00647244 -0.00444882,-0.0119291 -0.00606693,-0.016378 -0.00161811,-0.00444488 -0.00283071,-0.00747638 -0.0036378,-0.00909449 -0.000807087,-0.0064685 -0.0030315,-0.0147598 -0.00667323,-0.0248661 -0.0036378,-0.0101063 -0.00666929,-0.0183976 -0.00909449,-0.0248661 -0.00161811,-0.0064685 -0.00283071,-0.0119252 -0.0036378,-0.016374 -0.000811024,-0.00444882 -0.00161811,-0.0082874 -0.00242913,-0.0115236 -0.0064685,-0.0088937 -0.0226417,-0.0125315 -0.0485157,-0.0109173 -0.012937,0.000811024 -0.023248,0.00101181 -0.0309291,0.000606299 -0.00768504,-0.000401575 -0.0135472,-0.00100787 -0.0175906,-0.0018189 -0.128571,0 -0.235713,0.000204724 -0.321429,0.000606299 -0.0857126,0.000405512 -0.151213,0.00101181 -0.196496,0.0018189 -0.00566142,0 -0.0121299,-0.000200787 -0.0194055,-0.000606299 -0.00727953,-0.000401575 -0.0153661,-0.00100787 -0.0242598,-0.0018189 -0.0064685,0.000811024 -0.0101063,0.0018189 -0.0109173,0.00303543 -0.000807087,0.0012126 -0.00161417,0.00464961 -0.0024252,0.0103071zm1.00189 0.397846c0,0.0161732 0.000811024,0.0466969 0.0024252,0.0915748 0.00161811,0.0448819 0.00404331,0.104516 0.00727953,0.178909 0.0024252,0.0582205 -0.00444882,0.0933976 -0.020622,0.105528 -0.0105118,0.00808661 -0.0299173,0.0133425 -0.0582205,0.0157677 -0.0064685,0.000807087 -0.0121299,0.0012126 -0.0169803,0.0012126 -0.00485039,0 -0.00849213,0 -0.0109173,0l-0.026685 0c-0.0185984,0 -0.0278976,0.0076811 -0.0278976,0.0230472 0,0.00808661 0.00222441,0.015563 0.00667323,0.022437 0.00444488,0.00687402 0.0187992,0.010311 0.0430591,0.010311l0.691378 0c0.0210236,-0.000807087 0.0371969,0.0012126 0.0485157,0.00606299 0.00485039,0.00242913 0.00929921,0.00364173 0.0133425,0.00364173 0.00727559,0 0.0169803,-0.0064685 0.0291102,-0.0194094 0.013748,-0.0210236 0.0256732,-0.0398228 0.0357835,-0.0564016 0.0101063,-0.0165748 0.0192047,-0.0317362 0.0272913,-0.0454843l0.0375984 -0.0533701c0.00808661,-0.0105118 0.0121299,-0.0210236 0.0121299,-0.0315354 -0.0024252,-0.00727953 -0.00566142,-0.0119291 -0.00970472,-0.0139488 -0.00404331,-0.00202362 -0.00848819,-0.00384252 -0.0133425,-0.00545669 -0.00808268,-0.00161811 -0.0165748,0.0012126 -0.0254685,0.00848819l-0.0169843 0.020622c-0.0113189,0.0113189 -0.0181929,0.0177874 -0.0206181,0.0194055 -0.00404331,0.00566142 -0.0095,0.0115236 -0.016374,0.0175866 -0.00687402,0.00606693 -0.0147598,0.0131417 -0.0236535,0.0212283 -0.0315354,0.025874 -0.0594331,0.0436654 -0.0836929,0.0533701 -0.0315354,0.012937 -0.134638,0.0194055 -0.309299,0.0194055l-0.0703504 0c-0.0250669,-0.000807087 -0.0436654,-0.00929921 -0.0557953,-0.0254724 -0.00970472,-0.0121299 -0.0133425,-0.0553898 -0.0109173,-0.129783 0.00323622,-0.0671181 0.00545669,-0.120484 0.00667323,-0.16011 0.0012126,-0.039622 0.0018189,-0.0659016 0.0018189,-0.0788386l-0.00849213 -0.237736c-0.000807087,-0.00889764 -0.00161811,-0.0179921 -0.0024252,-0.0272913 -0.000811024,-0.00929921 -0.00161811,-0.0183976 -0.0024252,-0.0272913 -0.000811024,-0.0226417 0.0012126,-0.0384094 0.00606299,-0.0473071 0.0088937,-0.0113189 0.0202165,-0.0165748 0.0339646,-0.0157677 0.0202126,0.00161811 0.0323425,0.00161811 0.0363858,0 0.013748,-0.00485039 0.0218346,-0.0113189 0.0242598,-0.0194055 0.00323228,-0.0105118 0.0012126,-0.0202165 -0.00606693,-0.0291102 -0.00403937,-0.00404331 -0.0141496,-0.00606693 -0.0303228,-0.00606693 -0.0064685,0 -0.0135433,0.000204724 -0.0212244,0.000606299 -0.0076811,0.000405512 -0.016374,0.00101181 -0.0260787,0.0018189 -0.0088937,0.000811024 -0.0157677,0.00141732 -0.020622,0.00182283 -0.00485039,0.000401575 -0.00727559,0.000606299 -0.00727559,0.000606299l-0.0351772 0 -0.038811 -0.00485433 -0.0994646 0c-0.0145551,0 -0.0254685,0.000811024 -0.032748,0.0024252 -0.00727559,0.00161811 -0.0125315,0.00384252 -0.0157677,0.00667323 -0.00323622,0.00283071 -0.00485039,0.00666929 -0.00485039,0.0115236 0,0.00404331 0.000401575,0.00848819 0.0012126,0.0133425 0.00161811,0.0105118 0.00525591,0.0173858 0.0109173,0.0206181 0.0161693,0 0.031937,0.000405512 0.0473031,0.0012126 0.0153622,0.000811024 0.026685,0.00404331 0.0339606,0.00970472 0.0169843,0.013748 0.0254724,0.0351772 0.0254724,0.0642874 0,-0.00647244 -0.0012126,0.0145551 -0.0036378,0.0630709 -0.00323622,0.0582205 -0.00566142,0.105323 -0.00727953,0.141307 -0.00161417,0.0359843 -0.0024252,0.0616575 -0.0024252,0.0770236z"/>
  <path class="fil1" d="M4.64261 3.88347c-0.0092126,-0.00335433 -0.0167559,0.00355906 -0.0226181,0.0207323 -0.00586614,0.0171772 -0.00796063,0.0391693 -0.00628346,0.0659803 -0.00251575,0.0184291 -0.0125669,0.0339291 -0.0301614,0.0464961 -0.00670472,0.00418898 -0.0284882,0.00628346 -0.0653504,0.00628346 -0.0368622,0 -0.0582283,-0.00167323 -0.0640906,-0.00502756 -0.0276496,-0.0108898 -0.0414724,-0.0473346 -0.0414724,-0.109331l0 -0.0326772c-0.00502756,-0.0360236 -0.00753937,-0.0619961 -0.00753937,-0.0779134 0,-0.026811 0.0046063,-0.0460827 0.0138228,-0.057811 0.0142441,-0.0167559 0.0544567,-0.0251339 0.120646,-0.0251339l0.0326732 0c0.035189,0 0.0653504,0.000629921 0.0904843,0.00188583 0.0251339,0.00125591 0.0456575,0.00272047 0.0615787,0.00439764 0.0653465,0.0100551 0.106819,0.0314173 0.124413,0.0640945 0.0284843,0.0536181 0.0511063,0.081685 0.0678622,0.0841969 0.00753937,0.000838583 0.0146614,-0.00335039 0.0213661,-0.0125669 0.000834646,-0.00251181 -0.00167717,-0.0339291 -0.00754331,-0.094252 -0.00335039,-0.0301614 -0.00607087,-0.0532008 -0.00816929,-0.0691181 -0.00209449,-0.0159213 -0.00355906,-0.0247165 -0.00439764,-0.0263937 -0.00502756,-0.00921654 -0.0222008,-0.0138228 -0.0515236,-0.0138228 -0.00502756,0 -0.011311,0.000208661 -0.0188504,0.000629921 -0.00753937,0.000417323 -0.0146614,0.000834646 -0.0213661,0.00125591 -0.00670079,0.000417323 -0.0125669,0.000838583 -0.0175945,0.00125591 -0.00502362,0.000417323 -0.00795669,0.000629921 -0.00879528,0.000629921l-0.677366 0c-0.00838189,0 -0.0129882,0.00544488 -0.0138268,0.0163346 -0.00167323,0.00921654 -0.000417323,0.0159213 0.00377165,0.0201102 0.00670079,0.00837795 0.0167559,0.0154961 0.0301614,0.0213622l0.0515236 0c0.0360276,0.00167717 0.0582283,0.00544488 0.0666063,0.011311 0.0209449,0.0142441 0.031,0.0418898 0.0301614,0.0829409 -0.00418898,0.0552953 -0.00733071,0.108709 -0.0094252,0.160232 -0.00209449,0.0515236 -0.00314173,0.102004 -0.00314173,0.151433 0,0.0293228 0.000417323,0.0567638 0.00125591,0.082315 0.000838583,0.0255551 0.00209449,0.0492205 0.00377165,0.0710039 0.00418898,0.0527835 0.00733071,0.0906929 0.0094252,0.113732 0.00209449,0.0230394 0.00314173,0.0316299 0.00314173,0.0257638 0,0.0284843 -0.00418898,0.0469173 -0.0125669,0.0552953 -0.0125669,0.0125669 -0.0297441,0.0192717 -0.0515276,0.0201063 -0.0268071,0.00251575 -0.0431457,0.00461024 -0.0490118,0.00628346 -0.0125669,0.00335433 -0.0209449,0.0125669 -0.0251339,0.0276496 -0.00251181,0.0100551 0.00125591,0.0171732 0.011311,0.0213622 0.00586614,0.00251575 0.0150827,0.00377165 0.0276496,0.00377165 0.0335118,-0.000838583 0.0630433,-0.00146457 0.0885984,-0.00188583 0.0255512,-0.000417323 0.0479646,-0.000625984 0.0672323,-0.000625984 0.0150787,0 0.0333031,0.000208661 0.0546654,0.000625984 0.0213661,0.00042126 0.0458701,0.00104724 0.0735197,0.00188583l0.0955118 0c0.0117283,-0.00418898 0.0167559,-0.0125669 0.0150787,-0.0251339 -0.00167717,-0.00837795 -0.00251181,-0.011311 -0.00251181,-0.00879921 -0.00251575,-0.00753937 -0.00461024,-0.0121457 -0.00628346,-0.0138228 -0.00167717,-0.00167323 -0.00628346,-0.00418898 -0.0138268,-0.00753937 0,0 -0.0167559,-0.000838583 -0.0502677,-0.00251181 -0.0167559,-0.000838583 -0.0314173,-0.00167717 -0.0439843,-0.00251575 -0.0125669,-0.000838583 -0.0222008,-0.00209449 -0.0289055,-0.00376772 -0.0134055,-0.00335433 -0.0209449,-0.0192717 -0.0226181,-0.0477559 0.000834646,0.00418898 0.00125591,0 0.00125591,-0.0125669 0,-0.0125669 0,-0.0343504 0,-0.0653504 0,-0.022622 0.000417323,-0.0492205 0.00125591,-0.0797992 0.000838583,-0.0305827 0.00209449,-0.0655591 0.00377165,-0.104937 0.000834646,-0.0108937 0.00125591,-0.0217835 0.00125591,-0.0326732 0,-0.0108937 0,-0.0222047 0,-0.0339331 0.000838583,-0.0175945 0.00544488,-0.0289055 0.0138228,-0.0339291 0.00670079,-0.00502756 0.0293228,-0.00838189 0.0678622,-0.0100551 0.0360276,-0.000838583 0.0573898,0.000417323 0.0640945,0.00376772 0.0209449,0.0100551 0.032252,0.0339331 0.0339291,0.0716339l0 0.0414724c0.000838583,0.0100551 0.00502756,0.0180118 0.0125669,0.023878 0.0108937,0.00670079 0.0209449,0.00670079 0.0301614,0 0.0117283,-0.00921654 0.0175945,-0.0305787 0.0175945,-0.0640945 0,-0.0058622 -0.000208661,-0.0127756 -0.000629921,-0.0207362 -0.000417323,-0.00795669 -0.000838583,-0.0154961 -0.00125591,-0.0226181 -0.000417323,-0.00712205 -0.000838583,-0.0131969 -0.00125591,-0.0182244 -0.00042126,-0.00502362 -0.000629921,-0.00837795 -0.000629921,-0.0100512l0 -0.100539c0,-0.00418898 0.000208661,-0.0108898 0.000629921,-0.0201063 0.000417323,-0.00921654 0.00104724,-0.0209449 0.00188583,-0.035189 0.000834646,-0.0125669 -0.00209449,-0.0217835 -0.00879921,-0.0276457 -0.000838583,0 -0.00293307,0 -0.00628346,0 -0.00251181,0 -0.00628346,-0.00042126 -0.011311,-0.00125591zm1.31704 0.172169c-0.0100512,-0.163374 -0.0871299,-0.287787 -0.231232,-0.373244 -0.0670276,-0.039378 -0.148713,-0.0590669 -0.245059,-0.0590669 -0.0795945,0 -0.148713,0.0138228 -0.207358,0.0414724 -0.140752,0.0670236 -0.224531,0.188087 -0.251343,0.363189 -0.00167717,0.0142441 -0.00314173,0.0282756 -0.00439764,0.0420984 -0.00125984,0.0138268 -0.00188583,0.0278583 -0.00188583,0.0421024 0,0.14578 0.0481732,0.263071 0.14452,0.351878 0.0444055,0.0402165 0.100118,0.070378 0.167146,0.0904843 0.0578071,0.0184331 0.116453,0.0276496 0.175937,0.0276496 0.0293228,0 0.054878,-0.00251575 0.0766614,-0.00754331 0.166724,-0.0360236 0.28611,-0.147453 0.358161,-0.334283 0.0150827,-0.0837835 0.0213661,-0.145362 0.0188504,-0.184736zm-0.568031 -0.384555c0.0201063,-0.00670472 0.0439843,-0.0100551 0.0716299,-0.0100551 0.0804291,0 0.147874,0.019689 0.202331,0.0590669 0.0913228,0.0670236 0.137402,0.188925 0.13824,0.365705 0.000838583,0.199398 -0.0448228,0.334701 -0.13698,0.405917 -0.0444055,0.0343504 -0.104307,0.0515236 -0.179713,0.0515236 -0.0368622,0 -0.0691181,-0.00418898 -0.0967677,-0.0125669 -0.0527795,-0.0159173 -0.0934134,-0.0389567 -0.121898,-0.0691181 -0.0134055,-0.0142441 -0.026185,-0.0324646 -0.0383307,-0.0546693 -0.0121496,-0.0222008 -0.0236693,-0.0483819 -0.0345591,-0.0785433 -0.0184331,-0.0494291 -0.0276496,-0.117713 -0.0276496,-0.204843 0,-0.14578 0.022622,-0.254697 0.0678622,-0.326748 0.039378,-0.0619961 0.0913228,-0.103886 0.155835,-0.125669zm1.58471 0.384555c-0.0100512,-0.163374 -0.0871299,-0.287787 -0.231232,-0.373244 -0.0670276,-0.039378 -0.148713,-0.0590669 -0.245059,-0.0590669 -0.0795945,0 -0.148713,0.0138228 -0.207358,0.0414724 -0.140752,0.0670236 -0.224531,0.188087 -0.251343,0.363189 -0.00167717,0.0142441 -0.00314173,0.0282756 -0.00439764,0.0420984 -0.00125984,0.0138268 -0.00188583,0.0278583 -0.00188583,0.0421024 0,0.14578 0.0481732,0.263071 0.14452,0.351878 0.0444055,0.0402165 0.100118,0.070378 0.167146,0.0904843 0.0578071,0.0184331 0.116453,0.0276496 0.175937,0.0276496 0.0293228,0 0.054878,-0.00251575 0.0766614,-0.00754331 0.166724,-0.0360236 0.28611,-0.147453 0.358161,-0.334283 0.0150827,-0.0837835 0.0213661,-0.145362 0.0188504,-0.184736zm-0.568031 -0.384555c0.0201063,-0.00670472 0.0439843,-0.0100551 0.0716299,-0.0100551 0.0804291,0 0.147874,0.019689 0.202331,0.0590669 0.0913228,0.0670236 0.137402,0.188925 0.13824,0.365705 0.000838583,0.199398 -0.0448228,0.334701 -0.13698,0.405917 -0.0444055,0.0343504 -0.104307,0.0515236 -0.179713,0.0515236 -0.0368622,0 -0.0691181,-0.00418898 -0.0967677,-0.0125669 -0.0527795,-0.0159173 -0.0934134,-0.0389567 -0.121898,-0.0691181 -0.0134055,-0.0142441 -0.026185,-0.0324646 -0.0383307,-0.0546693 -0.0121496,-0.0222008 -0.0236693,-0.0483819 -0.0345591,-0.0785433 -0.0184331,-0.0494291 -0.0276496,-0.117713 -0.0276496,-0.204843 0,-0.14578 0.022622,-0.254697 0.0678622,-0.326748 0.039378,-0.0619961 0.0913228,-0.103886 0.155835,-0.125669zm1.5068 0.67611c0.0343504,-0.0594843 0.0515236,-0.129441 0.0515236,-0.20987 0,-0.0997008 -0.0242953,-0.188925 -0.0728898,-0.267681 -0.0519449,-0.0821024 -0.137819,-0.141169 -0.257626,-0.177197 -0.0779173,-0.0234567 -0.163791,-0.035185 -0.257626,-0.035185l-0.311665 0c-0.0201063,0 -0.0330906,0.00167323 -0.0389567,0.00502362 -0.00670472,0.00670472 -0.00753937,0.0167598 -0.00251575,0.0301614 0.00502756,0.0134055 0.011311,0.0205276 0.0188543,0.0213661 0.0234567,0.00167323 0.0450315,0.00272047 0.0647205,0.00314173 0.019685,0.000417323 0.0379094,0.000208661 0.0546654,-0.000629921 0.0125669,0.00418898 0.0188504,0.0280669 0.0188504,0.0716339 0,0.00670079 0,0.0142441 0,0.022622 0,0.00753937 -0.000417323,0.0159173 -0.00125591,0.0251339 -0.000838583,0.0125669 -0.0014685,0.0222008 -0.00188583,0.0289016 -0.000417323,0.00670472 -0.000629921,0.0104764 -0.000629921,0.011311 -0.00335039,0.0745669 -0.00565354,0.132165 -0.00690945,0.172799 -0.00125591,0.0406339 -0.00188583,0.0651378 -0.00188583,0.0735197l0.00879528 0.261394c0.000838583,0.0259724 0.0014685,0.0439843 0.00188583,0.0540394 0.00042126,0.0100551 0.000629921,0.0117283 0.000629921,0.00502756 0,0.0217835 -0.00461024,0.0368622 -0.0138228,0.0452402 -0.00921654,0.00837795 -0.0284882,0.0108937 -0.057811,0.00753937 -0.00167323,0 -0.00481496,-0.000417323 -0.0094252,-0.00125591 -0.0046063,-0.000838583 -0.0110984,-0.00209449 -0.0194764,-0.00376772 -0.00670472,0 -0.0121496,0.000208661 -0.0163386,0.000625984 -0.00418898,0.00042126 -0.00796063,0.00104724 -0.011311,0.00188583 -0.000838583,0.00335039 -0.00209449,0.011311 -0.00377165,0.023878 0,0.0117283 0.000838583,0.0201063 0.00251575,0.0251339 0.00670079,0.00418898 0.0222008,0.00628346 0.0464961,0.00628346l0.384555 0 0.0427283 0c0.0108937,0 0.019689,0 0.0263898,0 0.00754331,0 0.0134055,-0.000417323 0.0175945,-0.00125591 0.0209449,-0.000838583 0.0389606,-0.00209449 0.0540394,-0.00377165 0.0150827,-0.00167323 0.0280669,-0.00376772 0.0389567,-0.00628346 0.0527835,-0.0134055 0.101587,-0.0370709 0.146409,-0.0710039 0.0448228,-0.0339291 0.0802205,-0.0735157 0.106193,-0.11876zm-0.546673 -0.632126c0.154157,-0.00502756 0.27522,0.0385394 0.363193,0.130697 0.0578071,0.062 0.0867126,0.152063 0.0867126,0.270193 0,0.0385394 -0.00293307,0.0720551 -0.00879921,0.100539 -0.0234567,0.117291 -0.0909016,0.200654 -0.202331,0.250087 -0.0385394,0.0167559 -0.090063,0.0251339 -0.154575,0.0251339 -0.0494291,0 -0.0862953,-0.00712205 -0.110591,-0.0213661 -0.0108898,-0.0058622 -0.0180118,-0.0242953 -0.0213622,-0.0552953 -0.000838583,-0.00502756 -0.00125984,-0.011311 -0.00125984,-0.0188504 0,-0.00837795 -0.000417323,-0.0184291 -0.00125591,-0.0301614l-0.011311 -0.500169c-0.000834646,-0.0687008 0.00544882,-0.112268 0.0188504,-0.130701 0.0108937,-0.0117283 0.0251378,-0.0184291 0.0427283,-0.0201063z"/>
  <g id="_217024232">
   <path id="_217023968" class="fil1" d="M3.12444 4.78113l-0.00633071 -0.002c-0.0268898,-0.0111102 -0.051,-0.0166654 -0.0723346,-0.0166654 -0.0184449,0 -0.0357795,0.00411024 -0.052,0.0123346 -0.0188898,0.00977559 -0.0344449,0.0244449 -0.0466693,0.044 -0.0106654,0.0173307 -0.0175551,0.0357756 -0.0206654,0.0553346 -0.00133465,0.00977559 -0.002,0.0187756 -0.002,0.027 0,0.0324409 0.0114449,0.0597756 0.0343346,0.082 0.0228898,0.0222205 0.0535551,0.0333307 0.092,0.0333307 0.004,0 0.00788976,-0.000165354 0.0116654,-0.0005 0.00377953,-0.000330709 0.00755512,-0.000720472 0.0113346,-0.00116535 0.0188898,-0.00288976 0.0376654,-0.0106654 0.0563346,-0.0233346 0.0195551,-0.0133307 0.0335551,-0.0285551 0.042,-0.0456654l-0.00266929 -0.00266535c-0.00111024,-0.000224409 -0.00311024,0.000440945 -0.006,0.002 -0.00111024,0.000440945 -0.00211024,0.001 -0.003,0.00166535 -0.000889764,0.000665354 -0.00188976,0.00133465 -0.003,0.002 -0.008,0.004 -0.0121102,0.00611024 -0.0123307,0.00633465 -0.000444882,0.000885827 -0.000834646,0.00155512 -0.00116929,0.002 -0.000330709,0.000444882 -0.000610236,0.000885827 -0.000830709,0.00133071l-0.001 0.00166929 -0.000669291 0.001c-0.00133071,0.002 -0.00294488,0.00394488 -0.00483071,0.00583071 -0.00188976,0.00188976 -0.0055,0.00494488 -0.0108346,0.00916929 -0.0191102,0.0151102 -0.041,0.0226654 -0.0656693,0.0226654 -0.00933071,0 -0.0177756,-0.00133465 -0.0253307,-0.004 -0.0344449,-0.012 -0.0564449,-0.0376654 -0.066,-0.077 -0.00222441,-0.00866535 -0.00333465,-0.0186654 -0.00333465,-0.03 0,-0.0375551 0.0103346,-0.067 0.031,-0.0883346 0.016,-0.0166654 0.0348898,-0.025 0.0566654,-0.025 0.006,0 0.0122244,0.000665354 0.0186693,0.002 0.018,0.00333465 0.0311102,0.00911024 0.0393346,0.0173346 0.00777559,0.00777559 0.0161102,0.0222205 0.025,0.0433307l0.00233071 0.00433465c0.00155512,0.00222441 0.00266929,0.00344488 0.00333465,0.00366929 0.00222047,0 0.00422047,-0.00155906 0.006,-0.00466929 0.000889764,-0.00111024 0.00133465,-0.00366535 0.00133465,-0.00766535l0 -0.0146693c0,-0.00666535 0.000555118,-0.0116654 0.00166535,-0.015 0.00155512,-0.00511024 0.00288976,-0.01 0.004,-0.0146654l-0.00333465 -0.00366535c-0.00866535,0.00177559 -0.0176654,0.000555118 -0.027,-0.00366929zm0.0950039 0.115004c-0.0188898,0.0111102 -0.0287795,0.0263307 -0.0296693,0.0456654 -0.000444882,0.0102205 0.00177953,0.0201102 0.00666929,0.0296654 0.00488583,0.0106693 0.0118858,0.0193346 0.021,0.026 0.0102205,0.00755512 0.0226654,0.0113346 0.0373307,0.0113346 0.00822441,0 0.0153346,-0.00111024 0.0213346,-0.00333465 0.0124449,-0.00488583 0.023,-0.0124449 0.0316654,-0.0226654 0.00888976,-0.0108898 0.0133346,-0.0228898 0.0133346,-0.036 0,-0.0131102 -0.00588976,-0.0258898 -0.0176654,-0.0383346 -0.0137795,-0.0146654 -0.0293346,-0.022 -0.0466693,-0.022 -0.00244094,0 -0.00488583,0.000169291 -0.00733071,0.0005 -0.00244488,0.000334646 -0.00511024,0.000724409 -0.008,0.00116929 -0.00844488,0.00177559 -0.0157795,0.00444094 -0.022,0.008zm0.0153307 0.00533071c0.00622441,-0.00422047 0.012,-0.00633071 0.0173346,-0.00633071 0.00866535,0 0.0157795,0.00244094 0.0213346,0.00733071 0.0117756,0.01 0.0176654,0.0256693 0.0176654,0.047 0,0.00133465 0,0.00266929 0,0.004 0,0.00133465 -0.000110236,0.00255512 -0.000334646,0.00366929 -0.002,0.0206654 -0.00988583,0.0346654 -0.0236654,0.042 -0.00377559,0.002 -0.008,0.003 -0.0126654,0.003 -0.00488976,0 -0.00977953,-0.00122441 -0.0146693,-0.00366929 -0.0124409,-0.00688583 -0.0197756,-0.0212205 -0.022,-0.043 -0.000220472,-0.00133071 -0.000330709,-0.00266535 -0.000330709,-0.004 0,-0.00133071 0,-0.00277559 0,-0.00433071 0,-0.0211142 0.00577559,-0.0363346 0.0173307,-0.0456693zm0.171 -0.015c-0.0311102,0 -0.0521102,0.0124449 -0.063,0.0373346 -0.00266535,0.00577559 -0.004,0.0124449 -0.004,0.02 0,0.0144449 0.00377953,0.0267795 0.0113346,0.037 0.014,0.0188898 0.033,0.0283346 0.057,0.0283346 0.00155512,0 0.00311024,0 0.00466535,0 0.00177953,0 0.00355512,-0.000114173 0.00533465,-0.000334646 0.00555512,-0.000220472 0.0111654,-0.0015 0.0168307,-0.00383465 0.00566929,-0.00233071 0.011,-0.00544488 0.016,-0.00933071 0.005,-0.00388976 0.00955906,-0.0085 0.0136693,-0.0138346 0.00411024,-0.00533465 0.0075,-0.0111102 0.0101654,-0.0173346l-0.00566535 0c-0.0126693,0.0146693 -0.0226693,0.0237795 -0.03,0.0273346 -0.00666929,0.00333465 -0.0141102,0.005 -0.0223346,0.005 -0.00977559,0 -0.0182205,-0.00222047 -0.0253346,-0.00666535 -0.008,-0.00511417 -0.0141102,-0.0124449 -0.0183307,-0.022 -0.00177953,-0.00422441 -0.00316929,-0.00833465 -0.00416929,-0.0123346 -0.001,-0.004 -0.00138583,-0.008 -0.00116535,-0.012 0.000220472,-0.0191102 0.00788976,-0.0332244 0.023,-0.0423346 0.00555512,-0.00333071 0.0123346,-0.005 0.0203346,-0.005 0.008,0 0.015,0.00161024 0.021,0.00483465 0.006,0.00322047 0.0106654,0.00927559 0.014,0.0181654 0.00155512,0.00466929 0.00255512,0.008 0.003,0.01 0,0.00444488 0.00144488,0.00766929 0.00433071,0.00966929l0.00166929 0c0.00244488,-0.00377953 0.00366535,-0.00655906 0.00366535,-0.00833465 0.00133465,-0.00733465 0.002,-0.012 0.002,-0.014l0 -0.008c-0.0157756,-0.0148898 -0.0337756,-0.0223346 -0.054,-0.0223346zm0.103 -0.068c0,0.004 0.00116535,0.00788976 0.0035,0.0116654 0.00233071,0.00377953 0.00527559,0.00633465 0.00883071,0.00766929 0.00288976,0.00133071 0.00611417,0.000775591 0.00966929,-0.00166929 0.00555512,-0.004 0.00811024,-0.00988583 0.00766535,-0.0176654 0,-0.00266535 -0.000720472,-0.00505512 -0.00216535,-0.00716535 -0.00144488,-0.00211024 -0.00316929,-0.00377953 -0.00516929,-0.005 -0.002,-0.00122441 -0.00422047,-0.00194488 -0.00666535,-0.00216929 -0.00244488,-0.000220472 -0.00466535,0.000224409 -0.00666535,0.00133465 -0.006,0.00244488 -0.009,0.00677953 -0.009,0.013zm-0.000669291 0.071c-0.0104449,0.00711024 -0.0164449,0.0114449 -0.018,0.013 -0.000665354,0.00111024 -0.001,0.00188976 -0.001,0.00233465 0,0.002 0.00144488,0.00344488 0.00433465,0.00433465 0.000665354,0.000220472 0.00311024,-0.000559055 0.00733465,-0.00233465 0.00355512,-0.000665354 0.00588583,-0.000110236 0.007,0.00166535 0.00333071,0.00333465 0.00477559,0.0108898 0.00433071,0.0226693 -0.000220472,0.00511024 -0.000385827,0.00961024 -0.0005,0.0135 -0.000110236,0.00388583 -0.000165354,0.00727559 -0.000165354,0.0101654 0,0.00311024 5.51181e-005,0.00677953 0.000165354,0.011 0.000114173,0.00422047 0.000279528,0.00911024 0.0005,0.0146654 0.000224409,0.0104449 0,0.016 -0.000665354,0.0166693 -0.000665354,0.000665354 -0.00322047,0.000775591 -0.00766535,0.000330709 -0.00444488,-0.000220472 -0.00744488,0.000114173 -0.009,0.001 -0.00177953,0.00111417 -0.00177953,0.00344488 0,0.007 0.000885827,0.00222441 0.00411024,0.00288976 0.00966535,0.002 0.00222047,-0.000444882 0.00672047,-0.000610236 0.0135,-0.0005 0.00677953,0.000114173 0.0160551,0.000389764 0.0278346,0.000834646 0.00644488,0 0.01,-0.000555118 0.0106654,-0.00166535 0.00222441,-0.00355512 0.00144488,-0.00622441 -0.00233465,-0.008 -0.00177559,-0.000669291 -0.004,-0.001 -0.00666535,-0.001 -0.00288976,-0.000224409 -0.00511024,-0.000224409 -0.00666535,0 -0.00311024,-0.002 -0.00477953,-0.00633465 -0.005,-0.013 0,0.00111024 5.51181e-005,0.0005 0.000165354,-0.00183465 0.000110236,-0.00233465 0.000279528,-0.00638976 0.0005,-0.0121654 0.000665354,-0.014 0.001,-0.0251142 0.001,-0.0333346 0,-0.00733465 -0.000334646,-0.0176654 -0.001,-0.031 0,-0.002 0.000444882,-0.00427953 0.00133465,-0.00683465 0.000889764,-0.00255512 0.00133071,-0.00416535 0.00133071,-0.00483071 0,-0.000889764 -0.000165354,-0.00205906 -0.0005,-0.0035 -0.000330709,-0.00144488 -0.000775591,-0.00277953 -0.00133071,-0.004 -0.000555118,-0.00122441 -0.00122441,-0.00222441 -0.002,-0.003 -0.000779528,-0.000779528 -0.0015,-0.000944882 -0.00216929,-0.0005 -0.00511024,0.00177559 -0.00977559,0.00316535 -0.014,0.00416535 -0.00422047,0.001 -0.00788583,0.00172047 -0.011,0.00216535zm0.207669 0.0953346l0 -0.0266654c0,-0.0168898 -0.000555118,-0.0284449 -0.00166535,-0.0346693 -0.00266929,-0.0144449 -0.00911024,-0.025 -0.0193346,-0.0316654 -0.00511024,-0.00355512 -0.0112205,-0.00533465 -0.0183346,-0.00533465 -0.0124409,0 -0.0298858,0.00688976 -0.0523307,0.0206693l0 -0.012c0.00333071,-0.00444488 0.003,-0.00855906 -0.001,-0.0123346 -0.00133465,0 -0.00294488,0.000165354 -0.00483465,0.0005 -0.00188976,0.000334646 -0.00388976,0.000665354 -0.006,0.001 -0.00211024,0.000334646 -0.00411024,0.000610236 -0.006,0.000834646 -0.00188976,0.000220472 -0.0035,0.000330709 -0.00483465,0.000330709 -0.00577559,0.00266929 -0.00955512,0.00488976 -0.0113307,0.00666929 -0.00288976,0.00133071 -0.00516929,0.00238583 -0.00683465,0.00316535 -0.00166535,0.000775591 -0.00294488,0.00127559 -0.00383465,0.0015 -0.00177559,0.00133465 -0.00344488,0.00244488 -0.005,0.00333465 -0.002,0.000665354 -0.00244488,0.00255512 -0.00133071,0.00566535 0.000220472,0.00155512 0.000885827,0.00233465 0.002,0.00233465 0.000665354,0 0.00422047,-0.000334646 0.0106654,-0.001 0.00511024,-0.000444882 0.00811024,-0.000334646 0.009,0.000330709 0.00422047,0.00266929 0.00577953,0.0142244 0.00466535,0.0346693l-0.00166535 0.0353307c-0.000444882,0.00866929 -0.00211024,0.0143346 -0.005,0.017 -0.000665354,0.000669291 -0.00333465,0.00166929 -0.008,0.003 -0.00266535,0.000669291 -0.004,0.00311417 -0.004,0.00733465l0 0.002c0.000220472,0.000665354 0.00211024,0.001 0.00566535,0.001 0.0102244,-0.000665354 0.0183346,-0.001 0.0243346,-0.001 0.00622441,0 0.0146654,0.000334646 0.0253346,0.001 0.00355512,0 0.0055,-0.000334646 0.00583071,-0.001 0.000334646,-0.000665354 0.0005,-0.00144488 0.0005,-0.00233465 0.000224409,-0.00177559 -0.000110236,-0.00316535 -0.001,-0.00416535 -0.000885827,-0.001 -0.002,-0.00172047 -0.00333071,-0.00216535 -0.00133465,-0.000444882 -0.00272441,-0.000724409 -0.00416929,-0.000834646 -0.00144094,-0.000110236 -0.00272047,-0.000165354 -0.00383071,-0.000165354 -0.00311024,-0.000669291 -0.005,-0.00277953 -0.00566929,-0.00633465 -0.000220472,-0.000665354 -0.000330709,-0.00388976 -0.000330709,-0.00966535 0.000220472,-0.0131142 0.000330709,-0.023 0.000330709,-0.0296693 0,-0.00666535 0,-0.0102205 0,-0.0106654l0 -0.0206654c0,-0.00111417 0.001,-0.00333465 0.003,-0.00666929 0.00177953,-0.00333071 0.00322441,-0.00522047 0.00433465,-0.00566535 0.00377953,-0.00222441 0.00633465,-0.00355512 0.00766535,-0.004 0.00555906,-0.002 0.0113346,-0.003 0.0173346,-0.003 0.00866535,0 0.0157795,0.00211024 0.0213346,0.00633465 0.00755512,0.00555512 0.0113307,0.0206654 0.0113307,0.0453307l0 0.025c0,0.00911417 -0.00144094,0.0147795 -0.00433071,0.017 -0.000669291,0.000669291 -0.00344488,0.00166929 -0.00833465,0.003 -0.00288976,0.000669291 -0.00433465,0.00311417 -0.00433465,0.00733465l0 0.002c0.000224409,0.000665354 0.00222441,0.001 0.006,0.001 0.0102244,-0.000665354 0.0183346,-0.001 0.0243346,-0.001 0.00622441,0 0.0146654,0.000334646 0.0253346,0.001 0.00333465,0 0.00516535,-0.000334646 0.0055,-0.001 0.000334646,-0.000665354 0.0005,-0.00144488 0.0005,-0.00233465 0.000444882,-0.00377559 -0.00111024,-0.00611024 -0.00466535,-0.007 -0.000224409,-0.000220472 -0.00288976,-0.000330709 -0.008,-0.000330709 -0.00311417,-0.000444882 -0.00488976,-0.00155512 -0.00533465,-0.00333465 -0.000224409,-0.000444882 -0.000334646,-0.00344488 -0.000334646,-0.009zm0.167665 0.0186654c-0.00133071,-0.00177559 -0.0035,-0.00316535 -0.0065,-0.00416535 -0.003,-0.001 -0.00527559,-0.0015 -0.00683071,-0.0015 -0.00311024,-0.00155512 -0.00477953,-0.00488976 -0.005,-0.01 0.000220472,0.00133465 0.000330709,0.001 0.000330709,-0.001 0,-0.002 0,-0.00555512 0,-0.0106654l0 -0.015c0,-0.0164449 -0.000555118,-0.0277795 -0.00166535,-0.034 -0.00288976,-0.0168898 -0.01,-0.0291142 -0.0213346,-0.0366693 -0.004,-0.00266535 -0.00955512,-0.004 -0.0166654,-0.004 -0.0153346,0 -0.0305551,0.00377953 -0.0456654,0.0113346 -0.00533465,0.00244488 -0.00955512,0.00711024 -0.0126693,0.014 -0.00222047,0.00466535 -0.00333071,0.00977559 -0.00333071,0.0153346 0,0.00422047 0.00188583,0.00611024 0.00566535,0.00566535 0.000444882,-0.000224409 0.00127953,-0.000665354 0.0025,-0.00133465 0.00122047,-0.000665354 0.00272047,-0.00177559 0.0045,-0.00333071 0.00444488,-0.00333465 0.00766535,-0.00655906 0.00966535,-0.00966929 0.00288976,-0.00444488 0.00555906,-0.00805512 0.008,-0.0108307 0.00244488,-0.00277953 0.00466929,-0.00472441 0.00666929,-0.00583465 0.00688976,-0.004 0.0125551,-0.006 0.017,-0.006 0.002,0 0.00433071,0.000555118 0.007,0.00166535 0.00844488,0.00444488 0.0133307,0.0156693 0.0146654,0.0336693 0,0.000440945 -0.00422047,0.002 -0.0126654,0.00466535l-0.029 0.008c-0.0131142,0.00444488 -0.023,0.009 -0.0296693,0.0136654 -0.00933071,0.00711417 -0.014,0.0153346 -0.014,0.0246693 0,0.00644488 0.00144488,0.0112205 0.00433465,0.0143307 0.00711024,0.00844488 0.0185551,0.0126693 0.0343346,0.0126693 0.00644488,0 0.0148898,-0.000669291 0.0253307,-0.002 0.002,-0.000444882 0.004,-0.000834646 0.006,-0.00116929 0.002,-0.000330709 0.004,-0.000720472 0.006,-0.00116535 0.00222441,-0.000220472 0.00577953,0.000220472 0.0106693,0.00133465 0.00177559,0.000444882 0.00333071,0.00105512 0.00466535,0.00183071 0.00133465,0.000779528 0.00211024,0.00116929 0.00233465,0.00116929 0.004,0.00111024 0.00622047,0.00166535 0.00666535,0.00166535 0.000889764,0.000444882 0.00555512,0.000110236 0.014,-0.001 0.00422441,-0.000444882 0.00738976,-0.000720472 0.0095,-0.000834646 0.00211024,-0.000110236 0.00316535,-0.000165354 0.00316535,-0.000165354l0.002 -0.00166535 0 -0.00366929zm-0.044 -0.061c0.00111417,0.000444882 0.00155906,0.00233465 0.00133465,0.00566929l0 0.0473307c0.000224409,0.000224409 0,0.000555118 -0.000665354,0.001 -0.00133465,0.000889764 -0.00394488,0.00122441 -0.00783465,0.001 -0.00388976,-0.000220472 -0.00872047,0.000114173 -0.0145,0.001 -0.00644488,0.000669291 -0.0108898,0.001 -0.0133346,0.001 -0.00733071,0 -0.013,-0.00222047 -0.017,-0.00666535 -0.00488583,-0.00511024 -0.00644488,-0.0111102 -0.00466535,-0.018 0.00177953,-0.00555512 0.00677953,-0.0111102 0.015,-0.0166654 0.00311024,-0.00222441 0.00633465,-0.00422441 0.00966535,-0.006 0.00333465,-0.00177953 0.00677953,-0.00322441 0.0103346,-0.00433465 0.0111102,-0.00422441 0.0183346,-0.006 0.0216654,-0.00533465zm0.403665 -0.124c0,-0.000220472 0,-0.00177559 0,-0.00466535 0,-0.00288976 0.000110236,-0.00722441 0.000334646,-0.013 0,-0.00244488 0.000165354,-0.00527953 0.0005,-0.0085 0.000334646,-0.00322441 0.000720472,-0.00672441 0.00116535,-0.0105 0.000669291,-0.00622441 0.001,-0.00955512 0.001,-0.01 -0.00133071,-0.00266929 -0.00322047,-0.004 -0.00566535,-0.004 -0.00177953,0 -0.00344488,0.000775591 -0.005,0.00233071 -0.00111024,0.000889764 -0.00211024,0.00161417 -0.003,0.00216929 -0.000889764,0.000555118 -0.00155512,0.000944882 -0.002,0.00116535 -0.00222441,0.00111024 -0.00533465,0.00166535 -0.00933465,0.00166535 -0.00377559,0 -0.00833071,-0.00111024 -0.0136654,-0.00333071 -0.00733465,-0.00333465 -0.0147795,-0.00577953 -0.0223346,-0.00733465 -0.00755512,-0.00155512 -0.0136654,-0.00222047 -0.0183346,-0.002 -0.000440945,0 -0.00633071,0.000665354 -0.0176654,0.002 -0.008,0.00333465 -0.014,0.00666535 -0.018,0.01 -0.0122205,0.00955512 -0.0177756,0.0232244 -0.0166654,0.041 0.000665354,0.0115551 0.00577559,0.0234449 0.0153307,0.0356693 0.00822441,0.0102205 0.0186693,0.0194409 0.0313346,0.0276654l0.0173346 0.011c0.0308898,0.0195551 0.0463346,0.0408898 0.0463346,0.064 0,0.014 -0.00544488,0.0261102 -0.0163346,0.0363346 -0.0108898,0.0104449 -0.0265551,0.0156654 -0.047,0.0156654 -0.00311024,0 -0.00622441,-0.000165354 -0.00933465,-0.0005 -0.00311024,-0.000334646 -0.00622047,-0.000720472 -0.00933465,-0.00116535 -0.00844094,-0.00177953 -0.0186654,-0.00522441 -0.0306654,-0.0103346 -0.0157756,-0.00688976 -0.0251102,-0.0135551 -0.028,-0.02 -0.000220472,-0.000220472 -0.00122047,-0.00411024 -0.003,-0.0116654 -0.00133465,-0.006 -0.00288976,-0.00966929 -0.00466535,-0.011 -0.00244488,-0.002 -0.00444488,-0.00255906 -0.006,-0.00166929 -0.00288976,0.00644488 -0.00522441,0.0126693 -0.007,0.0186693 -0.00222441,0.00622047 -0.00427953,0.0118858 -0.00616929,0.017 -0.00188583,0.00511024 -0.00361024,0.00977559 -0.00516535,0.014 -0.000665354,0.00133071 -0.00133465,0.00266535 -0.002,0.004 -0.000665354,0.00133071 -0.00133465,0.00277559 -0.002,0.00433071 -0.00222047,0.00422441 -0.00333465,0.00755512 -0.00333465,0.01 0,0.00266929 0.00111417,0.00411417 0.00333465,0.00433465 0.00288976,0.000444882 0.00655512,-0.00122047 0.011,-0.005 0.00555512,-0.006 0.009,-0.00911024 0.0103346,-0.00933465 0.00688583,-0.00511024 0.0131102,-0.00766535 0.0186654,-0.00766535 0.002,0 0.00788976,0.00122047 0.0176654,0.00366535l0.0116693 0.003c0.0246654,0.00622441 0.0464449,0.00933465 0.0653307,0.00933465 0.0242244,0 0.0428898,-0.00522047 0.0560039,-0.0156654 0.0164409,-0.0131142 0.0246654,-0.0301142 0.0246654,-0.051 0,-0.00155906 -5.51181e-005,-0.003 -0.000165354,-0.00433465 -0.000114173,-0.00133465 -0.000279528,-0.00266535 -0.0005,-0.004 -0.00244488,-0.0175551 -0.0102244,-0.0341102 -0.0233346,-0.0496654 -0.0122244,-0.0142244 -0.0266654,-0.0252244 -0.0433346,-0.033l-0.0176654 -0.008c-0.0304449,-0.0135591 -0.0464449,-0.0288898 -0.048,-0.0460039 -0.000889764,-0.01 0.00322047,-0.0182205 0.0123307,-0.0246654 0.00466929,-0.00333465 0.0114449,-0.005 0.0203346,-0.005 0.0113346,0 0.0213346,0.002 0.03,0.006 0.0106693,0.00488976 0.0191102,0.012 0.0253346,0.0213346 0.00177559,0.00266535 0.00355512,0.006 0.00533465,0.01 0.00177559,0.004 0.00355512,0.00866535 0.00533071,0.014 0.00288976,0.00888976 0.00566929,0.0142205 0.00833465,0.016 0.00133465,0.000889764 0.00266535,0.001 0.004,0.000334646 0.00177559,-0.00111417 0.00255512,-0.00322441 0.00233465,-0.00633465l-0.000669291 -0.0173346zm0.168665 0.185c-0.00133071,-0.00177559 -0.0035,-0.00316535 -0.0065,-0.00416535 -0.003,-0.001 -0.00527559,-0.0015 -0.00683071,-0.0015 -0.00311024,-0.00155512 -0.00477953,-0.00488976 -0.005,-0.01 0.000220472,0.00133465 0.000330709,0.001 0.000330709,-0.001 0,-0.002 0,-0.00555512 0,-0.0106654l0 -0.015c0,-0.0164449 -0.000555118,-0.0277795 -0.00166535,-0.034 -0.00288976,-0.0168898 -0.01,-0.0291142 -0.0213346,-0.0366693 -0.004,-0.00266535 -0.00955512,-0.004 -0.0166654,-0.004 -0.0153346,0 -0.0305551,0.00377953 -0.0456654,0.0113346 -0.00533465,0.00244488 -0.00955512,0.00711024 -0.0126693,0.014 -0.00222047,0.00466535 -0.00333071,0.00977559 -0.00333071,0.0153346 0,0.00422047 0.00188583,0.00611024 0.00566535,0.00566535 0.000444882,-0.000224409 0.00127953,-0.000665354 0.0025,-0.00133465 0.00122047,-0.000665354 0.00272047,-0.00177559 0.0045,-0.00333071 0.00444488,-0.00333465 0.00766535,-0.00655906 0.00966535,-0.00966929 0.00288976,-0.00444488 0.00555906,-0.00805512 0.008,-0.0108307 0.00244488,-0.00277953 0.00466929,-0.00472441 0.00666929,-0.00583465 0.00688976,-0.004 0.0125551,-0.006 0.017,-0.006 0.002,0 0.00433071,0.000555118 0.007,0.00166535 0.00844488,0.00444488 0.0133307,0.0156693 0.0146654,0.0336693 0,0.000440945 -0.00422047,0.002 -0.0126654,0.00466535l-0.029 0.008c-0.0131142,0.00444488 -0.023,0.009 -0.0296693,0.0136654 -0.00933071,0.00711417 -0.014,0.0153346 -0.014,0.0246693 0,0.00644488 0.00144488,0.0112205 0.00433465,0.0143307 0.00711024,0.00844488 0.0185551,0.0126693 0.0343346,0.0126693 0.00644488,0 0.0148898,-0.000669291 0.0253307,-0.002 0.002,-0.000444882 0.004,-0.000834646 0.006,-0.00116929 0.002,-0.000330709 0.004,-0.000720472 0.006,-0.00116535 0.00222441,-0.000220472 0.00577953,0.000220472 0.0106693,0.00133465 0.00177559,0.000444882 0.00333071,0.00105512 0.00466535,0.00183071 0.00133465,0.000779528 0.00211024,0.00116929 0.00233465,0.00116929 0.004,0.00111024 0.00622047,0.00166535 0.00666535,0.00166535 0.000889764,0.000444882 0.00555512,0.000110236 0.014,-0.001 0.00422441,-0.000444882 0.00738976,-0.000720472 0.0095,-0.000834646 0.00211024,-0.000110236 0.00316535,-0.000165354 0.00316535,-0.000165354l0.002 -0.00166535 0 -0.00366929zm-0.044 -0.061c0.00111417,0.000444882 0.00155906,0.00233465 0.00133465,0.00566929l0 0.0473307c0.000224409,0.000224409 0,0.000555118 -0.000665354,0.001 -0.00133465,0.000889764 -0.00394488,0.00122441 -0.00783465,0.001 -0.00388976,-0.000220472 -0.00872047,0.000114173 -0.0145,0.001 -0.00644488,0.000669291 -0.0108898,0.001 -0.0133346,0.001 -0.00733071,0 -0.013,-0.00222047 -0.017,-0.00666535 -0.00488583,-0.00511024 -0.00644488,-0.0111102 -0.00466535,-0.018 0.00177953,-0.00555512 0.00677953,-0.0111102 0.015,-0.0166654 0.00311024,-0.00222441 0.00633465,-0.00422441 0.00966535,-0.006 0.00333465,-0.00177953 0.00677953,-0.00322441 0.0103346,-0.00433465 0.0111102,-0.00422441 0.0183346,-0.006 0.0216654,-0.00533465zm0.086 0.0256693c-0.000444882,0.0171102 -0.00277953,0.0266654 -0.007,0.0286654 -0.000444882,0.000220472 -0.0015,0.000389764 -0.00316535,0.0005 -0.00166929,0.000110236 -0.00405512,5.51181e-005 -0.00716929,-0.000165354 -0.00422047,-0.000224409 -0.00633071,0.00155512 -0.00633071,0.00533071 0,0.00133465 0.000330709,0.00255512 0.001,0.00366929 0.000665354,0.00111024 0.00266535,0.00166535 0.006,0.00166535 0.0122205,-0.000665354 0.0218858,-0.001 0.029,-0.001 0.00711024,0 0.0175551,0.000334646 0.0313307,0.001 0.00466929,0 0.00722441,-0.000889764 0.00766929,-0.00266535 0.000444882,-0.002 -0.00111024,-0.00422441 -0.00466929,-0.00666929 -0.00333071,-0.00111024 -0.00533071,-0.00155512 -0.006,-0.00133071l-0.00666535 0c-0.00244488,-0.000224409 -0.00444488,-0.000889764 -0.006,-0.002 -0.00311024,-0.00222441 -0.00444488,-0.00855512 -0.004,-0.019 0.000889764,-0.0306693 0.00155512,-0.0546693 0.002,-0.072l0.000334646 -0.0993346c0,-0.00755512 0.000889764,-0.0131102 0.00266535,-0.0166693 0.000224409,-0.00111024 0.00111024,-0.00244094 0.00266535,-0.004 0.000669291,-0.00111024 0.000889764,-0.00244094 0.000669291,-0.004 -0.00133465,-0.00422047 -0.00277953,-0.00666535 -0.00433465,-0.00733071l-0.00833465 0.00366535c-0.00355512,0.00266535 -0.00666535,0.00455512 -0.00933071,0.00566535l-0.00966929 0.00533465c-0.00333071,0.00222441 -0.00616535,0.00405512 -0.0085,0.0055 -0.00233071,0.00144488 -0.00405512,0.00238976 -0.00516535,0.00283465l-0.00433465 0.00166535c-0.00355512,0.00155512 -0.00533071,0.00377953 -0.00533071,0.00666535 0,0.00444488 0.000444882,0.00711417 0.00133071,0.008 0.002,0 0.00344488,-0.000440945 0.00433465,-0.00133071 0.00111024,-0.000889764 0.00194488,-0.0015 0.0025,-0.00183465 0.000555118,-0.000334646 0.00105512,-0.000610236 0.0015,-0.000834646 0.00333465,-0.000665354 0.00611024,0.000114173 0.00833465,0.00233465 0.00422047,0.00288976 0.00622047,0.0124449 0.006,0.0286654l-0.00133465 0.129004zm0.122669 -0.0706693c0,-0.00155512 -0.000389764,-0.00261024 -0.00116929,-0.00316535 -0.000775591,-0.000555118 -0.00261024,-0.000834646 -0.0055,-0.000834646 -0.00266535,0 -0.00672047,5.51181e-005 -0.0121654,0.000169291 -0.00544488,0.000110236 -0.0127205,-5.90551e-005 -0.0218346,-0.0005l-0.0133307 0.00666535c-0.002,0.00111024 -0.003,0.00244488 -0.003,0.004 0,0.00266535 0.00133071,0.00377559 0.004,0.00333465l0.005 -0.001c0.00111024,-0.000444882 0.00288583,0.000110236 0.00533071,0.00166535 0.00488976,0.00288976 0.00733465,0.0124449 0.00733465,0.0286654l0 0.0146693c0,0.0128858 0.000779528,0.0223307 0.00233465,0.0283307 0.00288583,0.0133346 0.00933071,0.0224449 0.0193307,0.0273346 0.00311417,0.00155512 0.00722441,0.00233465 0.0123346,0.00233465 0.0157795,0 0.0328898,-0.007 0.0513346,-0.021 0.000889764,0.00577559 0.00177559,0.00955512 0.00266535,0.0113307 0.00133465,0.00288976 0.004,0.005 0.008,0.00633465 0.00422441,0.00133465 0.0107795,0.00122047 0.0196654,-0.000334646l0.0100039 -0.002c0.00288583,-0.000885827 0.00466535,-0.00161024 0.00533071,-0.00216535 0.000669291,-0.000555118 0.00177953,-0.00205512 0.00333465,-0.0045l0 -0.00433465c-0.00177953,-0.00133071 -0.00488976,-0.00133071 -0.00933465,0 -0.00377559,0.000224409 -0.00677559,-0.000330709 -0.009,-0.00166535 -0.00333465,-0.00244488 -0.00511024,-0.00755512 -0.00533465,-0.0153346 0.000224409,0.00244488 0.000334646,0.00266929 0.000334646,0.000669291 0,-0.002 0,-0.00622441 0,-0.0126693l0 -0.0276654c0,0 -5.51181e-005,-0.000665354 -0.000165354,-0.002 -0.000110236,-0.00133465 -0.000279528,-0.00333465 -0.0005,-0.006 -0.000224409,-0.002 -0.000279528,-0.00383465 -0.000169291,-0.0055 0.000114173,-0.00166535 0.000279528,-0.00316535 0.0005,-0.0045 0.000224409,-0.00377953 0.00133465,-0.00677953 0.00333465,-0.009 0.00111024,-0.00244488 0.00333465,-0.00411024 0.00666535,-0.005 0.00377953,-0.00111024 0.00544488,-0.00266535 0.00500394,-0.00466535 0.000220472,-0.00222441 0,-0.00383465 -0.000669291,-0.00483465 -0.000665354,-0.001 -0.00255512,-0.00138976 -0.00566535,-0.00116535 -0.00977953,0.000665354 -0.0172244,0.001 -0.0223346,0.001 -0.00533465,0 -0.013,-0.000334646 -0.023,-0.001 -0.00444488,-0.000444882 -0.00688976,0.000330709 -0.00733465,0.00233071 -0.000440945,0.00111024 -0.000440945,0.00233465 0,0.00366929 0.00111417,0.00155512 0.00211417,0.00244094 0.003,0.00266535 0.00222441,0.000444882 0.00422441,0.000834646 0.006,0.00116535 0.00177953,0.000334646 0.00322441,0.000389764 0.00433465,0.000169291 0.00355512,0.000440945 0.00555512,0.00311024 0.006,0.008 -0.000220472,-0.00311417 -0.000389764,-0.00372441 -0.0005,-0.00183465 -0.000110236,0.00188976 -0.000165354,0.00627559 -0.000165354,0.0131654l0 0.0266693c0,0.002 0.000110236,0.00466535 0.000330709,0.008 0.000224409,0.00333071 0.000334646,0.00566535 0.000334646,0.007 0,0.00911024 -0.00377559,0.0161102 -0.0113346,0.021 -0.00577559,0.00377559 -0.0142205,0.00566535 -0.0253307,0.00566535 -0.006,0 -0.0104449,-0.000779528 -0.0133346,-0.00233465 -0.006,-0.00288583 -0.00966535,-0.00922047 -0.011,-0.019 -0.000220472,-0.00133071 -0.000389764,-0.00372047 -0.0005,-0.00716535 -0.000110236,-0.00344488 -0.000165354,-0.00794488 -0.000165354,-0.0135l0 -0.031c0,-0.00488976 0.001,-0.00855512 0.003,-0.011 0.00177559,-0.00155512 0.00355512,-0.00311024 0.00533071,-0.00466535 0.00177953,-0.00155906 0.00266929,-0.00311417 0.00266929,-0.00466929zm0.247665 -0.124665c-0.00177559,0.00111024 -0.00327559,0.00205512 -0.0045,0.00283071 -0.00122047,0.000779528 -0.00216535,0.00138976 -0.00283465,0.00183465 -0.004,0.00222441 -0.009,0.00411024 -0.015,0.00566535l-0.00833071 0.004 -0.00633465 0.00466929c-0.00155512,0.00133071 -0.00377559,0.00233071 -0.00666535,0.003l-0.00666929 0.00166535c-0.00355512,0.00111024 -0.00544094,0.00244488 -0.00566535,0.004 -0.000665354,0.00288976 0.000110236,0.005 0.00233465,0.00633465 0.002,0.00111024 0.00433071,0.00111024 0.007,0 0.004,-0.00111024 0.00777559,-0.001 0.0113307,0.000330709 0.00577953,0.00244488 0.00866929,0.0105591 0.00866929,0.0243346l0 0.051 0.00166535 0.0793346 0 0.00833465 0 0.008c0,0.00444488 -0.000220472,0.00733071 -0.000665354,0.00866535 -0.000444882,0.00133465 -0.002,0.00288976 -0.00466929,0.00466535 -0.00444094,0.00311417 -0.0103307,0.00466929 -0.0176654,0.00466929 -0.00688976,0 -0.0126654,-0.00111417 -0.0173346,-0.00333465 -0.0102205,-0.00444488 -0.0185551,-0.0112205 -0.025,-0.0203346 -0.00644488,-0.00822047 -0.0101102,-0.0168858 -0.011,-0.026 -0.000885827,-0.00622047 0.000224409,-0.013 0.00333465,-0.0203307 0.00311024,-0.00733465 0.00766535,-0.0133346 0.0136654,-0.018 0.00688976,-0.00533465 0.0154449,-0.008 0.0256693,-0.008 0.00222047,0 0.00472047,0.000165354 0.0075,0.0005 0.00277559,0.000330709 0.00594488,0.000720472 0.0095,0.00116535 0.00577559,0.00111024 0.00922047,0.00144488 0.0103307,0.001 0.002,-0.000665354 0.00266929,-0.002 0.002,-0.004 -0.00111024,-0.00244488 -0.006,-0.00511024 -0.0146654,-0.008 -0.00844488,-0.00288976 -0.0168898,-0.00433465 -0.0253346,-0.00433465 -0.0122205,0 -0.0234409,0.00372441 -0.0336654,0.0111693 -0.0102205,0.00744094 -0.0175551,0.0171654 -0.022,0.0291654 -0.00266535,0.00711024 -0.004,0.0146654 -0.004,0.0226654 0,0.0142244 0.004,0.0263346 0.012,0.0363346 0.0126654,0.0153346 0.0322244,0.023 0.0586654,0.023 0.00711417,0 0.0121142,-0.000444882 0.015,-0.00133465 0.00755906,-0.00311024 0.013,-0.00511024 0.0163346,-0.006 0.000889764,-0.000220472 0.00177953,0.000114173 0.00266535,0.001 0.000889764,0.00111417 0.0015,0.00194488 0.00183465,0.0025 0.000334646,0.000555118 0.0005,0.000834646 0.0005,0.000834646 0.00133465,0.000889764 0.00244488,0.0015 0.00333465,0.00183465 0.000889764,0.000330709 0.00155512,0.000610236 0.002,0.000830709 0.00111024,0 0.003,-0.000110236 0.00566535,-0.000330709 0.00266535,-0.000224409 0.00444488,-0.000334646 0.00533465,-0.000334646 0.00622047,0.00111024 0.01,0.00188976 0.0113307,0.00233465l0.005 0c0.00555906,0 0.00977953,-0.00111417 0.0126693,-0.00333465 0.00444488,-0.00311024 0.00666535,-0.00611024 0.00666535,-0.009 0,-0.00111024 -0.000110236,-0.002 -0.000330709,-0.00266535 -0.00177953,-0.000889764 -0.00577953,-0.00133465 -0.012,-0.00133465 -0.00600394,0.000665354 -0.0105591,0.000110236 -0.0136693,-0.00166535 -0.00422047,-0.00244488 -0.00611024,-0.0116693 -0.00566535,-0.0276693 0.000665354,-0.0282205 0.001,-0.0504449 0.001,-0.0666654 0,-0.0204449 -0.000334646,-0.0485551 -0.001,-0.0843346 0,-0.00933465 0.000444882,-0.0156654 0.00133071,-0.019 0,0 0.00133465,-0.00322047 0.004,-0.00966535 0.00222441,-0.00511024 0.00333465,-0.00755512 0.00333465,-0.00733465 0,-0.00155512 -0.000775591,-0.00283465 -0.00233465,-0.00383465 -0.00155512,-0.001 -0.00311024,-0.00127559 -0.00466535,-0.000830709z"/>
   <path id="_217023704" class="fil1" d="M4.99277 5.00346c-0.00133071,-0.00177559 -0.0035,-0.00316535 -0.0065,-0.00416535 -0.003,-0.001 -0.00527559,-0.0015 -0.00683071,-0.0015 -0.00311024,-0.00155512 -0.00477953,-0.00488976 -0.005,-0.01 0.000220472,0.00133465 0.000330709,0.001 0.000330709,-0.001 0,-0.002 0,-0.00555512 0,-0.0106654l0 -0.015c0,-0.0164449 -0.000555118,-0.0277795 -0.00166535,-0.034 -0.00288976,-0.0168898 -0.01,-0.0291142 -0.0213346,-0.0366693 -0.004,-0.00266535 -0.00955512,-0.004 -0.0166654,-0.004 -0.0153346,0 -0.0305551,0.00377953 -0.0456654,0.0113346 -0.00533465,0.00244488 -0.00955512,0.00711024 -0.0126693,0.014 -0.00222047,0.00466535 -0.00333071,0.00977559 -0.00333071,0.0153346 0,0.00422047 0.00188583,0.00611024 0.00566535,0.00566535 0.000444882,-0.000224409 0.00127953,-0.000665354 0.0025,-0.00133465 0.00122047,-0.000665354 0.00272047,-0.00177559 0.0045,-0.00333071 0.00444488,-0.00333465 0.00766535,-0.00655906 0.00966535,-0.00966929 0.00288976,-0.00444488 0.00555906,-0.00805512 0.008,-0.0108307 0.00244488,-0.00277953 0.00466929,-0.00472441 0.00666929,-0.00583465 0.00688976,-0.004 0.0125551,-0.006 0.017,-0.006 0.002,0 0.00433071,0.000555118 0.007,0.00166535 0.00844488,0.00444488 0.0133307,0.0156693 0.0146654,0.0336693 0,0.000440945 -0.00422047,0.002 -0.0126654,0.00466535l-0.029 0.008c-0.0131142,0.00444488 -0.023,0.009 -0.0296693,0.0136654 -0.00933071,0.00711417 -0.014,0.0153346 -0.014,0.0246693 0,0.00644488 0.00144488,0.0112205 0.00433465,0.0143307 0.00711024,0.00844488 0.0185551,0.0126693 0.0343346,0.0126693 0.00644488,0 0.0148898,-0.000669291 0.0253307,-0.002 0.002,-0.000444882 0.004,-0.000834646 0.006,-0.00116929 0.002,-0.000330709 0.004,-0.000720472 0.006,-0.00116535 0.00222441,-0.000220472 0.00577953,0.000220472 0.0106693,0.00133465 0.00177559,0.000444882 0.00333071,0.00105512 0.00466535,0.00183071 0.00133465,0.000779528 0.00211024,0.00116929 0.00233465,0.00116929 0.004,0.00111024 0.00622047,0.00166535 0.00666535,0.00166535 0.000889764,0.000444882 0.00555512,0.000110236 0.014,-0.001 0.00422441,-0.000444882 0.00738976,-0.000720472 0.0095,-0.000834646 0.00211024,-0.000110236 0.00316535,-0.000165354 0.00316535,-0.000165354l0.002 -0.00166535 0 -0.00366929zm-0.044 -0.061c0.00111417,0.000444882 0.00155906,0.00233465 0.00133465,0.00566929l0 0.0473307c0.000224409,0.000224409 0,0.000555118 -0.000665354,0.001 -0.00133465,0.000889764 -0.00394488,0.00122441 -0.00783465,0.001 -0.00388976,-0.000220472 -0.00872047,0.000114173 -0.0145,0.001 -0.00644488,0.000669291 -0.0108898,0.001 -0.0133346,0.001 -0.00733071,0 -0.013,-0.00222047 -0.017,-0.00666535 -0.00488583,-0.00511024 -0.00644488,-0.0111102 -0.00466535,-0.018 0.00177953,-0.00555512 0.00677953,-0.0111102 0.015,-0.0166654 0.00311024,-0.00222441 0.00633465,-0.00422441 0.00966535,-0.006 0.00333465,-0.00177953 0.00677953,-0.00322441 0.0103346,-0.00433465 0.0111102,-0.00422441 0.0183346,-0.006 0.0216654,-0.00533465zm0.107 -0.169335l-0.007 0.00433465c-0.000889764,0.000665354 -0.00188976,0.00127953 -0.003,0.00183465 -0.00111024,0.000555118 -0.00222047,0.00105512 -0.00333465,0.0015l-0.00666535 0.00233071c-0.00133465,0.00155906 -0.0025,0.00283465 -0.0035,0.00383465 -0.001,0.001 -0.00183465,0.00183465 -0.0025,0.0025 0,0.000444882 -0.00233465,0.00211024 -0.007,0.005 -0.00311024,0.00177953 -0.00572047,0.00327953 -0.00783465,0.0045 -0.00211024,0.00122441 -0.00372047,0.00205512 -0.00483071,0.0025l0 0.003c0.006,0.002 0.00966535,0.003 0.011,0.003 0.00555512,-0.00133465 0.00922047,-0.00111024 0.011,0.000665354 0.00444488,0.00333465 0.00666535,0.00944488 0.00666535,0.0183346 0,0.00222441 -0.000165354,0.00505512 -0.0005,0.0085 -0.000334646,0.00344488 -0.0005,0.00561024 -0.0005,0.0065 -0.000665354,0.0271102 -0.001,0.0481102 -0.001,0.063 0,0.0191102 0.000334646,0.0457795 0.001,0.08 0,0.000669291 -0.00188976,0.00322441 -0.00566535,0.00766929 -0.00244488,0.00288583 -0.00461417,0.00561024 -0.0065,0.00816535 -0.00188976,0.00255512 -0.0035,0.00505512 -0.00483465,0.0075 0.000220472,0.00155512 0.00344488,0.00233465 0.00966535,0.00233465 0.00622441,-0.00244488 0.00977953,-0.00422441 0.0106693,-0.00533465 0.00222047,-0.000889764 0.00577559,-0.00122047 0.0106654,-0.001 0.00466535,0.00177953 0.00833465,0.00222047 0.011,0.00133465l0.004 -0.00333465c0.00377953,0.000889764 0.00705512,0.00166535 0.00983465,0.00233465 0.00277559,0.000665354 0.00505512,0.00122047 0.00683071,0.00166535 0.00888976,0.002 0.0164449,0.003 0.0226693,0.003 0.014,0 0.0275551,-0.00588976 0.0406654,-0.0176654 0.0131102,-0.012 0.0196693,-0.0253346 0.0196693,-0.04 0,-0.03 -0.0127795,-0.05 -0.0383346,-0.06 -0.00733465,-0.00288976 -0.0147795,-0.00433465 -0.0223346,-0.00433465 -0.0135551,0 -0.0274449,0.00511024 -0.0416654,0.0153346l-0.003 -0.102335 0 -0.00833465 0.000665354 -0.004c0.000444882,-0.000665354 0.001,-0.00133465 0.00166535,-0.002 0.000669291,-0.000665354 0.00133465,-0.00144488 0.002,-0.00233465 0,-0.00622047 -0.000885827,-0.00966535 -0.00266535,-0.0103307 -0.004,0 -0.00633465,0.000110236 -0.007,0.000330709zm0.0133346 0.136335c0.00844488,-0.00644488 0.0143307,-0.00966535 0.0176654,-0.00966535 0.00311024,0 0.0111102,0.00344488 0.024,0.0103346 0.00555512,0.00288583 0.0101654,0.00605512 0.0138346,0.0095 0.00366535,0.00344094 0.00661024,0.00705512 0.00883071,0.0108307 0.00355906,0.00644488 0.00533465,0.0155551 0.00533465,0.0273346 0,0.0164449 -0.00688976,0.0285551 -0.0206654,0.0363346 -0.00644488,0.00333071 -0.0128898,0.005 -0.0193346,0.005 -0.00711024,0 -0.0132205,-0.00188976 -0.0183346,-0.00566929 -0.00733071,-0.00533071 -0.012,-0.0113307 -0.014,-0.018 -0.00133071,-0.00488583 -0.002,-0.014 -0.002,-0.0273307l0 -0.041c0,-0.000669291 0.000724409,-0.000444882 0.00216929,0.000665354 0.00144488,0.00111024 0.00227559,0.00166535 0.0025,0.00166535zm0.135665 0.0586693c-0.000444882,0.0171102 -0.00277953,0.0266654 -0.007,0.0286654 -0.000444882,0.000220472 -0.0015,0.000389764 -0.00316535,0.0005 -0.00166929,0.000110236 -0.00405512,5.51181e-005 -0.00716929,-0.000165354 -0.00422047,-0.000224409 -0.00633071,0.00155512 -0.00633071,0.00533071 0,0.00133465 0.000330709,0.00255512 0.001,0.00366929 0.000665354,0.00111024 0.00266535,0.00166535 0.006,0.00166535 0.0122205,-0.000665354 0.0218858,-0.001 0.029,-0.001 0.00711024,0 0.0175551,0.000334646 0.0313307,0.001 0.00466929,0 0.00722441,-0.000889764 0.00766929,-0.00266535 0.000444882,-0.002 -0.00111024,-0.00422441 -0.00466929,-0.00666929 -0.00333071,-0.00111024 -0.00533071,-0.00155512 -0.006,-0.00133071l-0.00666535 0c-0.00244488,-0.000224409 -0.00444488,-0.000889764 -0.006,-0.002 -0.00311024,-0.00222441 -0.00444488,-0.00855512 -0.004,-0.019 0.000889764,-0.0306693 0.00155512,-0.0546693 0.002,-0.072l0.000334646 -0.0993346c0,-0.00755512 0.000889764,-0.0131102 0.00266535,-0.0166693 0.000224409,-0.00111024 0.00111024,-0.00244094 0.00266535,-0.004 0.000669291,-0.00111024 0.000889764,-0.00244094 0.000669291,-0.004 -0.00133465,-0.00422047 -0.00277953,-0.00666535 -0.00433465,-0.00733071l-0.00833465 0.00366535c-0.00355512,0.00266535 -0.00666535,0.00455512 -0.00933071,0.00566535l-0.00966929 0.00533465c-0.00333071,0.00222441 -0.00616535,0.00405512 -0.0085,0.0055 -0.00233071,0.00144488 -0.00405512,0.00238976 -0.00516535,0.00283465l-0.00433465 0.00166535c-0.00355512,0.00155512 -0.00533071,0.00377953 -0.00533071,0.00666535 0,0.00444488 0.000444882,0.00711417 0.00133071,0.008 0.002,0 0.00344488,-0.000440945 0.00433465,-0.00133071 0.00111024,-0.000889764 0.00194488,-0.0015 0.0025,-0.00183465 0.000555118,-0.000334646 0.00105512,-0.000610236 0.0015,-0.000834646 0.00333465,-0.000665354 0.00611024,0.000114173 0.00833465,0.00233465 0.00422047,0.00288976 0.00622047,0.0124449 0.006,0.0286654l-0.00133465 0.129004zm0.178 -0.0396693c-0.00333071,-0.018 -0.0141102,-0.0307756 -0.0323307,-0.0383307 -0.00511024,-0.00222441 -0.0113346,-0.00333465 -0.0186693,-0.00333465 -0.0153307,0 -0.0277756,0.00344488 -0.0373307,0.0103346 -0.0186693,0.0131102 -0.0275551,0.031 -0.0266693,0.0536654 0.00111417,0.024 0.0108898,0.041 0.0293346,0.051 0.00955512,0.00488976 0.0211102,0.00733465 0.0346654,0.00733465 0.0133346,0 0.0248898,-0.00233465 0.0346693,-0.007 0.00222047,-0.00111417 0.00488976,-0.00277953 0.008,-0.005 0.00311024,-0.00222441 0.00666535,-0.005 0.0106654,-0.00833465 0.008,-0.00711024 0.0134449,-0.0126654 0.0163346,-0.0166654 0.00222047,-0.00288976 0.00333071,-0.00555512 0.00333071,-0.008 0,-0.00133465 -0.000440945,-0.00244488 -0.00133071,-0.00333465 -0.00666929,0.00311024 -0.011,0.00611024 -0.013,0.009 -0.00311024,0.00444488 -0.00755512,0.00877953 -0.0133346,0.013 -0.00844488,0.00622047 -0.0178898,0.00966535 -0.0283346,0.0103346 -0.0202205,0.00133071 -0.0352205,-0.00588976 -0.045,-0.0216693 -0.00555512,-0.00911024 -0.00833071,-0.0177756 -0.00833071,-0.026 0,-0.00422047 0.00611024,-0.00633071 0.0183307,-0.00633071 0.00466929,0 0.0105591,0.000330709 0.0176693,0.001 0.00355512,0.000220472 0.00622047,0.000385827 0.008,0.0005 0.00177559,0.000110236 0.00266535,0.000165354 0.00266535,0.000165354l0.0386654 0c0.00288976,-0.002 0.00355906,-0.00611024 0.002,-0.0123346zm-0.084 0.000669291c-0.000885827,-0.002 -0.000885827,-0.00444488 0,-0.00733465 0.000889764,-0.00177953 0.00161417,-0.00333465 0.00216929,-0.00466535 0.000555118,-0.00133465 0.00105512,-0.00244488 0.0015,-0.00333465 0.00688976,-0.012 0.0166654,-0.018 0.0293307,-0.018 0.00355906,0 0.007,0.000665354 0.0103346,0.002 0.00733465,0.00311024 0.0121102,0.00888976 0.0143346,0.0173346 0.00155512,0.006 0.00155512,0.00977559 0,0.0113307 -0.00533465,0.000889764 -0.0105,0.0015 -0.0155,0.00183465 -0.005,0.000334646 -0.00994488,0.000610236 -0.0148346,0.000834646l-0.0273346 0z"/>
  </g>
 </g>
</svg>
